<?xml version="1.0" encoding="UTF-8" standalone="no"?>
<svg
   version="1.1"
   width="1024"
   height="1024"
   id="svg88"
   sodipodi:docname="leaseLogo.svg"
   xmlns:inkscape="http://www.inkscape.org/namespaces/inkscape"
   xmlns:sodipodi="http://sodipodi.sourceforge.net/DTD/sodipodi-0.dtd"
   xmlns="http://www.w3.org/2000/svg"
   xmlns:svg="http://www.w3.org/2000/svg">
  <sodipodi:namedview
     id="namedview15"
     pagecolor="#ffffff"
     bordercolor="#000000"
     borderopacity="0.25"
     inkscape:showpageshadow="2"
     inkscape:pageopacity="0.0"
     inkscape:pagecheckerboard="0"
     inkscape:deskcolor="#d1d1d1"
     showgrid="false"
     inkscape:lockguides="false" />
  <defs
     id="defs92" />
  <path
     d="m 333.35519,185.81183 c 3.5279,4.68191 3.85864,6.92052 4.57304,12.40756 3.14967,19.16609 9.93061,36.15239 20.19123,53.2041 2.35381,3.99031 4.29091,7.88645 6.12913,12.0704 -1.0489,0.12158 -2.0978,0.24315 -3.1785,0.36841 -61.70115,7.291 -121.49876,20.61659 -180.72587,37.40423 -1.83449,0.51761 -3.66901,1.03522 -5.5591,1.5685 -1.60839,0.46001 -3.2168,0.92002 -4.87392,1.39395 -4.03079,0.98304 -4.03079,0.98304 -8.9087,0.98304 3.65271,92.64597 12.86035,183.2342 60.16085,267.57151 0.71368,1.29389 1.42735,2.58779 2.16266,3.9209 24.9154,44.89966 59.96487,91.95856 101.48015,126.46513 2.04516,1.96116 2.04516,1.96116 2.04516,4.83828 1.07313,0 2.14626,0 3.25194,0 0,-117.73147 0,-235.46293 0,-356.76201 36.21845,-0.71209 36.21845,-0.71209 73.16858,-1.43855 82.76249,-5.88138 174.97385,-18.90458 232.61516,-77.05269 23.47568,-25.75849 32.957,-54.77304 38.92163,-86.94276 91.0917,11.18706 182.61126,32.49334 265.0329,69.05072 0.0766,10.55817 0.13393,21.11629 0.16852,31.67463 0.0162,4.90776 0.0392,9.81536 0.0766,14.72302 0.25833,36.33534 -1.85054,72.28316 -7.05413,108.33708 -0.16981,1.19309 -0.33961,2.38619 -0.51453,3.61544 -18.10566,125.83787 -73.11712,239.73408 -169.9073,333.63614 -2.07502,2.03611 -2.07502,2.03611 -4.19196,4.11337 -13.59913,13.3008 -27.54192,26.39677 -42.99289,38.03746 -3.75139,2.84765 -7.39317,5.79111 -11.04516,8.7381 -8.53521,6.80548 -17.37142,13.22749 -26.32037,19.60034 -1.84243,1.33121 -3.68434,2.66303 -5.52575,3.99536 -25.3253,18.23885 -51.88318,34.39726 -79.56449,49.70396 -4.06533,2.25323 -8.11705,4.52403 -12.16302,6.80434 -18.64234,10.49812 -37.45729,20.74227 -56.41586,30.78777 -2.62894,1.43772 -5.21697,2.93633 -7.75035,4.50255 -8.24398,5.04845 -8.24398,5.04845 -13.34676,4.35988 -1.34981,-0.7696 -2.69961,-1.53912 -4.09033,-2.33201 -2.07476,-1.06218 -4.14957,-2.12419 -6.22441,-3.1862 -2.40125,-1.29887 -4.7976,-2.60486 -7.18983,-3.91666 -1.2868,-0.70095 -2.5736,-1.40198 -3.89939,-2.12411 -10.9762,-6.00516 -21.83236,-12.16748 -32.6341,-18.41468 -4.91937,-2.84383 -9.86808,-5.64216 -14.83697,-8.4178 -1.28365,-0.72136 -2.5673,-1.44272 -3.88986,-2.18594 -2.47911,-1.39211 -4.96368,-2.77664 -7.4542,-4.1527 -2.86373,-1.61558 -5.6518,-3.33528 -8.42162,-5.07429 0,-0.94945 0,-1.89889 0,-2.87711 2.10232,-1.82629 2.10232,-1.82629 5.18277,-4.04593 16.10244,-12.14989 30.78004,-25.64776 43.5963,-40.54932 0.64687,-0.7501 1.29373,-1.5002 1.96021,-2.27303 11.07082,-12.9476 20.46837,-26.48619 28.93319,-40.88367 0.56592,-0.96196 1.13183,-1.92392 1.71489,-2.91505 16.12605,-27.85078 24.9652,-56.94819 30.80449,-87.714 0.31086,-1.62132 0.31086,-1.62132 0.628,-3.27539 2.43149,-13.30056 2.96345,-26.6578 3.45598,-40.10046 0.069,-1.86368 0.13805,-3.72735 0.20917,-5.6475 0.83198,-23.40509 1.13076,-46.81887 1.45014,-70.23293 0.0836,-6.04949 0.17311,-12.09891 0.262,-18.14835 0.17169,-11.74065 0.33727,-23.48137 0.49858,-35.22216 2.59417,-1.14131 2.59417,-1.14131 5.24074,-2.30568 2.32229,-1.02394 4.64453,-2.04795 6.96673,-3.07203 1.13353,-0.49843 2.26706,-0.99686 3.43494,-1.51039 23.48021,-10.36288 44.73039,-22.24097 65.65604,-36.26858 1.07051,-0.71719 2.14103,-1.43438 3.24399,-2.17329 11.39111,-7.67883 22.29263,-15.61296 32.70516,-24.32201 3.07409,-2.27583 3.07409,-2.27583 6.32603,-2.27583 0.0765,23.48649 0.13354,46.97295 0.16849,70.45953 0.0166,10.90857 0.0394,21.8171 0.0768,32.72564 0.0327,9.52307 0.0535,19.04611 0.0607,28.56923 0.004,5.02861 0.0138,10.05709 0.0378,15.08566 0.2776,60.48386 -9.48742,116.6538 -40.99306,171.08092 24.56639,-12.42635 44.11328,-30.13313 64.02252,-47.65218 0.90706,-0.7948 1.8141,-1.5896 2.74863,-2.40848 11.59255,-10.18166 22.24835,-20.60999 32.41295,-31.93706 2.56963,-2.64103 5.14303,-5.27921 7.72335,-7.91206 10.07444,-10.65139 18.65932,-22.18085 27.39376,-33.70494 2.68078,-3.50152 5.46766,-6.9287 8.27594,-10.35085 32.5888,-41.34081 52.42925,-89.07452 67.98581,-137.20233 0.33814,-1.04503 0.67628,-2.09007 1.02467,-3.16677 7.03408,-21.89266 11.91944,-43.80082 15.43826,-66.33348 0.35499,-2.22443 0.71067,-4.44876 1.06704,-6.673 0.34363,-2.16056 0.68662,-4.3212 1.02894,-6.48193 0.15413,-0.97133 0.30828,-1.94266 0.46707,-2.94343 0.44817,-2.874 0.87788,-5.74959 1.29863,-8.62684 0.14537,-0.96877 0.29074,-1.93756 0.44051,-2.93569 1.33668,-9.61073 1.69765,-19.22555 2.05561,-28.89799 0.10482,-2.65466 0.10482,-2.65466 0.21175,-5.36296 0.22043,-5.61289 0.43318,-11.226 0.64569,-16.83913 0.14813,-3.82214 0.298,-7.64422 0.44777,-11.46631 0.36469,-9.33453 0.72308,-18.66923 1.07657,-28.00409 -0.94149,-0.17509 -1.88299,-0.35019 -2.853,-0.53058 -7.38224,-1.40612 -14.52783,-2.99183 -21.68261,-5.1562 -1.79154,-0.53117 -3.58307,-1.06234 -5.42889,-1.6096 -1.88271,-0.55922 -3.76543,-1.11844 -5.70518,-1.6946 -20.59382,-6.00199 -41.29549,-10.6255 -62.48864,-14.62649 -3.88432,-0.76092 -7.72251,-1.61064 -11.56916,-2.50694 -5.79108,-1.431 -5.79108,-1.431 -12.22017,-1.20816 -1.09724,2.32818 -1.09724,2.32818 -2.21666,4.7034 -11.85326,24.64203 -26.63398,47.3351 -44.93643,68.66298 -1.08153,1.26283 -2.16306,2.52568 -3.27735,3.82678 -19.25318,21.84648 -41.77477,42.6249 -66.63932,59.4697 -1.05924,0.72808 -2.1185,1.45616 -3.20986,2.2063 -40.0359,27.40772 -92.16495,58.18362 -143.12732,65.40586 0.0717,1.18651 0.0717,1.18651 0.14493,2.39699 1.39227,23.68731 1.7463,47.32075 1.75415,71.03682 0.005,3.78983 0.0107,7.57964 0.0164,11.36946 0.0103,7.88231 0.0128,15.76458 0.0117,23.6469 -8.5e-4,9.03055 0.0163,18.06099 0.0418,27.09152 0.024,8.80315 0.0296,17.60624 0.0287,26.40941 0.002,3.69543 0.009,7.39085 0.0217,11.08627 0.16134,51.74133 0.16134,51.74133 -7.20227,75.8329 -0.34846,1.17533 -0.69692,2.35067 -1.05593,3.56162 -10.88363,35.47602 -28.88509,67.39786 -57.47894,94.27708 -3.2009,2.96238 -3.2009,2.96238 -6.19902,7.17592 -1.07313,0 -2.14628,0 -3.25193,0 0,0.94945 0,1.8989 0,2.87711 -2.84545,2.48376 -2.84545,2.48376 -6.50388,5.21477 -1.81092,1.36298 -1.81092,1.36298 -3.65843,2.75349 -0.93899,0.69353 -1.87799,1.38708 -2.84544,2.10164 -8.31782,-2.29971 -14.38845,-6.81609 -21.1376,-11.50845 -2.48544,-1.70838 -4.97098,-3.41667 -7.45659,-5.12486 -1.22143,-0.84374 -2.44286,-1.68749 -3.70131,-2.55681 -3.02436,-2.07803 -6.06677,-4.12996 -9.1286,-6.16443 -13.83985,-9.23666 -26.91951,-19.12674 -39.87434,-29.31059 -1.60133,-1.25357 -3.20265,-2.50714 -4.8525,-3.79869 -10.23164,-8.15209 -20.04541,-16.64786 -29.80096,-25.24218 -1.22471,-1.07681 -2.44941,-2.15363 -3.71123,-3.26309 -7.59852,-6.74204 -14.79554,-13.69428 -21.79616,-20.92263 -1.54384,-1.55787 -3.08928,-3.11449 -4.63655,-4.66969 -30.81899,-31.25023 -56.73955,-64.9473 -78.28786,-101.78349 -0.93611,-1.59942 -0.93611,-1.59942 -1.89114,-3.23114 -3.28461,-5.64899 -6.48086,-11.33145 -9.60973,-17.04914 -1.51517,-2.75169 -3.06562,-5.48623 -4.61908,-8.22113 -31.61774,-56.53476 -49.155032,-119.84576 -58.776209,-182.0673 -0.244574,-1.56777 -0.489149,-3.13554 -0.741134,-4.75082 -0.688287,-4.65207 -1.32527,-9.30711 -1.924337,-13.9688 -0.35601,-2.7593 -0.721806,-5.5176 -1.093142,-8.27531 -3.919307,-29.5886 -4.90691,-58.7199 -4.604266,-88.48637 0.05124,-5.60596 0.07246,-11.21202 0.09676,-16.81813 0.05125,-10.86528 0.133705,-21.73011 0.238179,-32.5951 15.533026,-7.06015 31.044639,-13.67568 47.356339,-19.24069 1.94363,-0.66573 3.88725,-1.33145 5.88977,-2.01735 56.355,-19.14536 114.84342,-34.62012 174.56419,-42.82165 7.14195,-0.99517 14.25396,-2.13034 21.36941,-3.26274 2.17625,-0.33998 4.35265,-0.67914 6.52928,-1.01711 1.46719,-0.22808 2.93438,-0.45617 4.44602,-0.69118 z"
     fill="#003050"
     id="path66"
     style="fill:#33d8c3;fill-opacity:1;stroke-width:1.5294" />
  <path
     d="m 567.49469,90.867107 c 23.18593,15.949163 40.57853,38.704053 45.52713,64.735043 0.4893,5.87949 0.52815,11.72885 0.50812,17.62231 0.0262,1.51875 0.0524,3.03749 0.0794,4.60227 0.0194,28.07111 -12.80004,51.26102 -34.12312,71.55132 -23.42027,19.98985 -52.98109,26.42474 -84.65199,26.01764 -26.32539,-0.82831 -50.29979,-13.23731 -68.19305,-29.84092 -23.14176,-22.81972 -31.9182,-50.94409 -30.12567,-81.12882 1.75565,-21.34569 12.29975,-41.47426 27.89392,-57.73472 1.01865,-1.17012 2.0373,-2.34024 3.08681,-3.54582 34.39881,-36.713056 97.92465,-38.968376 139.99845,-12.278303 z"
     fill="#003150"
     id="path68"
     style="fill:#33d8c3;fill-opacity:1;stroke-width:1.5294" />
</svg>
