<?xml version="1.0" encoding="UTF-8" standalone="no"?>
<svg
   version="1.1"
   width="1024"
   height="1024"
   id="svg88"
   sodipodi:docname="ChatGPT Image Oct 12, 2025, 02_08_05 AM.svg"
   inkscape:export-filename="logo.svg"
   inkscape:export-xdpi="18.75"
   inkscape:export-ydpi="18.75"
   xmlns:inkscape="http://www.inkscape.org/namespaces/inkscape"
   xmlns:sodipodi="http://sodipodi.sourceforge.net/DTD/sodipodi-0.dtd"
   xmlns="http://www.w3.org/2000/svg"
   xmlns:svg="http://www.w3.org/2000/svg">
  <defs
     id="defs92" />
  <sodipodi:namedview
     id="namedview90"
     pagecolor="#ffffff"
     bordercolor="#000000"
     borderopacity="0.25"
     inkscape:showpageshadow="2"
     inkscape:pageopacity="0.0"
     inkscape:pagecheckerboard="0"
     inkscape:deskcolor="#d1d1d1"
     showgrid="false" />
  <path
     d="m 313.13219,137.6391 c 3.94005,5.41051 4.30942,7.99749 5.10728,14.33842 3.51763,22.14872 11.09075,41.77843 22.55006,61.48374 2.62879,4.61128 4.7922,9.11374 6.84517,13.94879 -1.17144,0.1405 -2.34288,0.28099 -3.54983,0.42575 -68.90935,8.42562 -135.69279,23.82494 -201.83907,43.22508 -2.04881,0.59816 -4.09764,1.19632 -6.20854,1.81259 -1.79629,0.5316 -3.5926,1.06319 -5.44332,1.61088 -4.50168,1.13602 -4.50168,1.13602 -9.94945,1.13602 4.07944,107.06355 14.36275,211.74915 67.18911,309.21104 0.79705,1.49525 1.5941,2.99051 2.41531,4.53108 27.82613,51.88695 66.97023,106.26917 113.33551,146.14566 2.28409,2.26635 2.28409,2.26635 2.28409,5.59121 1.1985,0 2.397,0 3.63184,0 0,-136.05286 0,-272.10572 0,-412.28139 40.44966,-0.8229 40.44966,-0.8229 81.71647,-1.66242 92.43117,-6.79664 195.41507,-21.84651 259.7903,-89.04364 26.21821,-29.76704 36.80718,-63.29684 43.46863,-100.47281 101.73343,12.92799 203.94472,37.54996 295.99522,79.7964 0.0856,12.20124 0.14958,24.40241 0.18821,36.60385 0.0181,5.6715 0.0438,11.34282 0.0856,17.01422 0.28851,41.98985 -2.06673,83.53188 -7.87822,125.19652 -0.18965,1.37876 -0.37929,2.75753 -0.57464,4.17807 -20.22085,145.42079 -81.65899,277.04155 -189.75663,385.55667 -2.31743,2.35297 -2.31743,2.35297 -4.68168,4.75349 -15.18785,15.37068 -30.7595,30.50464 -48.01552,43.95686 -4.18964,3.2908 -8.25687,6.69232 -12.3355,10.09793 -9.53233,7.86454 -19.40083,15.28595 -29.39523,22.65054 -2.05768,1.53838 -4.11476,3.07745 -6.1713,4.61712 -28.28391,21.07719 -57.9444,39.75017 -88.85957,57.4389 -4.54025,2.60388 -9.06531,5.22807 -13.58395,7.86324 -20.82022,12.13184 -41.83322,23.97018 -63.00662,35.57897 -2.93606,1.66146 -5.82644,3.39328 -8.65578,5.20323 -9.20707,5.8341 -9.20707,5.8341 -14.90599,5.03837 -1.5075,-0.88937 -3.01499,-1.77864 -4.56818,-2.69492 -2.31714,-1.22747 -4.63434,-2.45475 -6.95157,-3.68204 -2.68177,-1.501 -5.35807,-3.01022 -8.02978,-4.52617 -1.43713,-0.81003 -2.87426,-1.62015 -4.35493,-2.45466 -12.25849,-6.93969 -24.38291,-14.06099 -36.44656,-21.28038 -5.49408,-3.28639 -11.02092,-6.52019 -16.57029,-9.72778 -1.43361,-0.83362 -2.86723,-1.66723 -4.34429,-2.52611 -2.76873,-1.60875 -5.54356,-3.20874 -8.32504,-4.79895 -3.19828,-1.86699 -6.31207,-3.85432 -9.40547,-5.86395 0,-1.0972 0,-2.1944 0,-3.32485 2.34793,-2.1105 2.34793,-2.1105 5.78825,-4.67556 17.98359,-14.04065 34.3759,-29.63907 48.68941,-46.85961 0.72244,-0.86683 1.44487,-1.73366 2.18921,-2.62676 12.36416,-14.96251 22.85958,-30.60798 32.3133,-47.24599 0.63203,-1.11166 1.26405,-2.22333 1.91523,-3.36869 18.00996,-32.18493 27.88174,-65.81049 34.4032,-101.36408 0.34718,-1.87363 0.34718,-1.87363 0.70137,-3.7851 2.71555,-15.3704 3.30965,-30.8063 3.85972,-46.34091 0.0771,-2.1537 0.15418,-4.3074 0.23361,-6.52636 0.92918,-27.04739 1.26286,-54.10483 1.61955,-81.1626 0.0934,-6.99091 0.19333,-13.98174 0.29261,-20.97259 0.19175,-13.56774 0.37667,-27.13555 0.55683,-40.70344 2.89723,-1.31893 2.89723,-1.31893 5.85298,-2.6645 2.59359,-1.18328 5.18713,-2.36665 7.78062,-3.5501 1.26595,-0.57599 2.53191,-1.15199 3.83622,-1.74543 26.22328,-11.97556 49.95599,-25.70212 73.32627,-41.91271 1.19558,-0.82879 2.39116,-1.65759 3.62297,-2.51149 12.72187,-8.87382 24.89695,-18.04266 36.52592,-28.10701 3.43322,-2.63 3.43322,-2.63 7.06507,-2.63 0.0854,27.14147 0.14914,54.2829 0.18817,81.42446 0.0186,12.60617 0.044,25.21228 0.0858,37.81841 0.0365,11.00506 0.0598,22.01007 0.0678,33.01518 0.005,5.81116 0.0154,11.62218 0.0422,17.4333 0.31003,69.89637 -10.59578,134.80748 -45.78205,197.70456 27.43635,-14.36014 49.26679,-34.82245 71.50192,-55.06782 1.01302,-0.91848 2.02603,-1.83697 3.06974,-2.78328 12.94684,-11.76614 24.8475,-23.81733 36.19957,-36.90712 2.86983,-3.05202 5.74386,-6.10076 8.62563,-9.14333 11.25138,-12.30897 20.83918,-25.63264 30.59402,-38.95011 2.99396,-4.04643 6.10641,-8.00695 9.24277,-11.96166 36.39597,-47.77427 58.55427,-102.93631 75.92822,-158.55378 0.37764,-1.20766 0.75528,-2.41533 1.14437,-3.65958 7.85583,-25.2996 13.31192,-50.61712 17.24183,-76.65632 0.39646,-2.57059 0.79369,-5.14107 1.1917,-7.71145 0.38377,-2.49679 0.76683,-4.99367 1.14914,-7.49065 0.17214,-1.12249 0.34429,-2.24498 0.52164,-3.40148 0.50052,-3.32126 0.98043,-6.64435 1.45034,-9.96936 0.16235,-1.11953 0.3247,-2.23908 0.49197,-3.39254 1.49284,-11.10635 1.89598,-22.21743 2.29575,-33.3951 0.11707,-3.06778 0.11707,-3.06778 0.23649,-6.19754 0.24619,-6.48637 0.48379,-12.973 0.72113,-19.45965 0.16543,-4.41694 0.33281,-8.83381 0.50008,-13.25069 0.40729,-10.78717 0.80755,-21.57454 1.20234,-32.3621 -1.05148,-0.20233 -2.10297,-0.40468 -3.18631,-0.61315 -8.24466,-1.62494 -16.22503,-3.45742 -24.21566,-5.95861 -2.00084,-0.61383 -4.00166,-1.22766 -6.06312,-1.86008 -2.10266,-0.64625 -4.20532,-1.29249 -6.37169,-1.95831 -22.99968,-6.93603 -46.11981,-12.27905 -69.78884,-16.90267 -4.3381,-0.87934 -8.62468,-1.86129 -12.92072,-2.89707 -6.46762,-1.65369 -6.46762,-1.65369 -13.64778,-1.39618 -1.22543,2.6905 -1.22543,2.6905 -2.47562,5.43535 -13.23801,28.47682 -29.74548,54.7014 -50.18611,79.34833 -1.20788,1.45935 -2.41575,2.91872 -3.66022,4.4223 -21.50242,25.24623 -46.65509,49.2582 -74.42442,68.72439 -1.18299,0.84138 -2.366,1.68277 -3.58485,2.54964 -44.71308,31.67292 -102.93208,67.23817 -159.8481,75.58433 0.0801,1.37116 0.0801,1.37116 0.16186,2.77002 1.55493,27.37353 1.95032,54.68481 1.95908,82.09158 0.006,4.3796 0.012,8.75919 0.0183,13.13878 0.0115,9.10895 0.0143,18.21787 0.0131,27.32683 -9.5e-4,10.43589 0.0182,20.87165 0.0467,31.30751 0.0268,10.1731 0.0331,20.34613 0.0321,30.51925 0.002,4.27051 0.01,8.54102 0.0242,12.81152 0.18019,59.79333 0.18019,59.79333 -8.04367,87.63403 -0.38917,1.35824 -0.77834,2.71648 -1.17929,4.11588 -12.1551,40.99681 -32.25957,77.88633 -64.19389,108.9485 -3.57484,3.42339 -3.57484,3.42339 -6.92321,8.29264 -1.1985,0 -2.39702,0 -3.63184,0 0,1.0972 0,2.1944 0,3.32484 -3.17786,2.87029 -3.17786,2.87029 -7.26369,6.0263 -2.02248,1.57508 -2.02248,1.57508 -4.08582,3.18199 -1.04869,0.80146 -2.09739,1.60293 -3.17786,2.4287 -9.28955,-2.6576 -16.06937,-7.87682 -23.60699,-13.2994 -2.7758,-1.97424 -5.55171,-3.94837 -8.3277,-5.92239 -1.36412,-0.97505 -2.72825,-1.9501 -4.13371,-2.95471 -3.37768,-2.40141 -6.77552,-4.77266 -10.19505,-7.12374 -15.45668,-10.67407 -30.06437,-22.10324 -44.53264,-33.87191 -1.7884,-1.44865 -3.57679,-2.8973 -5.41939,-4.38984 -11.42694,-9.42072 -22.3872,-19.2386 -33.28244,-29.17037 -1.36778,-1.24439 -2.73556,-2.48878 -4.14479,-3.7709 -8.48621,-7.79123 -16.52402,-15.82538 -24.34249,-24.17861 -1.72419,-1.8003 -3.45018,-3.59917 -5.17821,-5.39639 -34.4194,-36.1134 -63.36812,-75.05441 -87.4338,-117.62306 -1.04547,-1.84832 -1.04547,-1.84832 -2.11207,-3.73397 -3.66833,-6.52808 -7.23798,-13.09485 -10.73238,-19.70233 -1.69218,-3.17991 -3.423757,-6.34 -5.158705,-9.5005 C 61.881752,553.0589 42.295678,479.89542 31.550512,407.99096 c -0.273146,-1.81175 -0.546293,-3.6235 -0.827716,-5.49015 -0.768696,-5.37602 -1.480094,-10.75548 -2.149147,-16.14263 -0.397601,-3.1887 -0.80613,-6.37624 -1.220848,-9.56311 -4.377178,-34.19318 -5.480157,-67.8579 -5.142156,-102.25664 0.05723,-6.47836 0.08092,-12.95684 0.108064,-19.43537 0.05724,-12.55614 0.149325,-25.11175 0.266004,-37.66756 17.347663,-8.15885 34.671416,-15.80389 52.88872,-22.23493 2.170687,-0.76933 4.341374,-1.53865 6.577839,-2.33129 62.938638,-22.12476 128.259938,-40.00771 194.957558,-49.48556 7.9763,-1.15004 15.91917,-2.46186 23.86588,-3.77049 2.43049,-0.39289 4.86114,-0.78483 7.29206,-1.17539 1.63859,-0.26358 3.27718,-0.52716 4.96542,-0.79874 z"
     fill="#003050"
     id="path66"
     style="stroke-width:1.73748" />
  <path
     d="m 574.62491,27.919055 c 25.89462,18.431175 45.3191,44.72719 50.84581,74.809125 0.54647,6.79446 0.58986,13.55409 0.56748,20.3647 0.0293,1.75509 0.0585,3.51018 0.0887,5.31847 0.0217,32.43954 -14.2954,59.23827 -38.10953,82.68615 -26.15633,23.10068 -59.17058,30.53697 -94.54142,30.06652 -29.40083,-0.95722 -56.17603,-15.29731 -76.15966,-34.48477 -25.84528,-26.37093 -35.64703,-58.87202 -33.64509,-93.75411 1.96076,-24.667507 13.73667,-47.928491 31.15262,-66.719411 1.13765,-1.352214 2.2753,-2.704428 3.44742,-4.097618 38.41743,-42.42635098 109.36465,-45.0326443 156.35369,-14.189056 z"
     fill="#003150"
     id="path68"
     style="stroke-width:1.73748" />
  <path
     d="m 443.87856,887.39274 c 0,8.43924 -6.814,13.8181 -12.71146,19.94911 -6.72254,6.06295 -13.16735,11.33828 -21.79106,14.96182 5.63298,5.55736 11.68683,9.57964 18.6132,13.71501 1.95694,1.17434 3.91387,2.3487 5.93012,3.55863 1.48877,0.8829 2.97754,1.76581 4.51143,2.67546 -1.79776,0.8229 -1.79776,0.8229 -3.63185,1.66243 -3.24613,-1.43717 -3.24613,-1.43717 -7.10763,-3.72098 -1.38109,-0.8154 -2.76219,-1.63079 -4.18513,-2.4709 -1.44196,-0.87113 -2.88391,-1.74224 -4.36956,-2.63975 -2.184,-1.27775 -2.184,-1.27775 -4.41212,-2.58131 -8.00278,-4.7783 -8.00278,-4.7783 -10.79623,-6.87374 0,-1.0972 0,-2.1944 0,-3.32485 2.28409,-2.05206 2.28409,-2.05206 5.67476,-4.57167 12.14334,-9.41122 23.10533,-19.98399 34.27553,-30.33926 z"
     fill="#0c1b38"
     id="path70"
     style="stroke-width:1.73748" />
  <path
     d="m 669.05285,435.21317 c 1.1985,0 2.39701,0 3.63184,0 0.0529,7.55015 0.0851,15.10027 0.11349,22.65054 0.0152,2.13653 0.0304,4.27308 0.0462,6.47436 0.006,2.06797 0.0117,4.13593 0.0177,6.26657 0.01,1.89786 0.019,3.79573 0.0288,5.75111 -0.201,5.27036 -0.94039,10.20588 -2.02208,15.37986 -0.59925,0 -1.1985,0 -1.81591,0 0,-15.90941 0,-31.81881 0,-48.21032 -1.19852,-0.5486 -2.39702,-1.0972 -3.63185,-1.66243 1.19851,-2.1944 2.39702,-4.3888 3.63185,-6.64969 z"
     fill="#042746"
     id="path72"
     style="stroke-width:1.73748" />
  <path
     d="m 443.87856,887.39274 c 0,8.39916 -6.74939,13.91359 -12.71146,19.94911 -3.54026,2.65748 -6.88682,4.591 -10.89553,6.6497 0,-4.98728 0,-4.98728 2.16704,-7.53733 0.98901,-0.87929 1.97802,-1.75857 2.99698,-2.66451 1.06508,-0.95897 2.13016,-1.91795 3.22752,-2.90599 1.12595,-0.98898 2.25189,-1.97797 3.41195,-2.99691 1.12594,-1.00827 2.25189,-2.01654 3.41195,-3.05536 2.78515,-2.49089 5.58681,-4.96629 8.39155,-7.43871 z"
     fill="#102f4d"
     id="path74"
     style="stroke-width:1.73748" />
  <path
     d="m 725.34642,722.81268 c 1.19851,0.5486 2.39701,1.0972 3.63184,1.66243 -8.4743,7.75797 -16.9486,15.51596 -25.4229,23.27394 0,-4.98727 0,-4.98727 4.76679,-9.83817 2.02928,-1.82458 4.07285,-3.63592 6.12874,-5.43536 1.03933,-0.92897 2.07866,-1.85795 3.14949,-2.81508 2.56999,-2.29393 5.15648,-4.57235 7.74604,-6.84776 z"
     fill="#041534"
     id="path76"
     style="stroke-width:1.73748" />
  <path
     d="m 447.5104,21.269354 c 0.59925,1.097201 1.1985,2.194402 1.81592,3.324851 -1.74159,0.257156 -1.74159,0.257156 -3.51835,0.519508 -1.23596,0.377162 -2.47192,0.754325 -3.74534,1.142917 -0.59926,1.645801 -1.1985,3.291601 -1.81592,4.987275 -9.92423,8.312124 -9.92423,8.312124 -14.52738,8.312124 2.56789,-5.64443 5.49056,-8.41042 10.89554,-11.948679 1.91012,-1.269709 1.91012,-1.269709 3.85883,-2.56507 3.40486,-2.110501 3.40486,-2.110501 7.0367,-3.772926 z"
     fill="#071f3c"
     id="path78"
     style="stroke-width:1.73748" />
  <path
     d="m 679.94837,195.82397 c 0.59926,1.0972 1.19851,2.19441 1.81592,3.32486 -1.34775,3.00015 -1.34775,3.00015 -3.40484,6.44189 -2.11317,3.55793 -3.77501,6.52558 -4.7739,10.48107 -0.90086,3.02614 -0.90086,3.02614 -4.6462,5.10417 -1.16106,0.41145 -2.32211,0.82289 -3.51835,1.24681 2.59223,-6.30141 5.7426,-12.08786 9.3066,-17.97496 0.97847,-1.62224 1.95694,-3.24446 2.96506,-4.91585 0.74438,-1.22364 1.48877,-2.44727 2.25571,-3.70799 z"
     fill="#051835"
     id="path80"
     style="stroke-width:1.73748" />
  <path
     d="m 443.87856,887.39274 c 0,5.96666 -1.20644,6.8302 -5.44777,11.11748 -1.01125,1.03505 -2.02249,2.0701 -3.06437,3.13653 -0.78652,0.78218 -1.57304,1.56437 -2.3834,2.37024 -0.59925,-1.6458 -1.19851,-3.2916 -1.81592,-4.98726 4.19478,-3.84021 8.38956,-7.68041 12.71146,-11.63699 z"
     fill="#061d3c"
     id="path82"
     style="stroke-width:1.73748" />
  <path
     d="m 620.02296,471.78651 c 0.59925,1.0972 1.19851,2.1944 1.81592,3.32485 -3.29136,3.32486 -3.29136,3.32486 -7.26369,6.64971 -1.79776,0 -3.59552,0 -5.44777,0 0,-1.0972 0,-2.1944 0,-3.32485 3.5619,-2.30974 7.19408,-4.53184 10.89554,-6.64971 z"
     fill="#05203f"
     id="path84"
     style="stroke-width:1.73748" />
  <path
     d="m 338.55509,214.11065 c 4.94706,3.91131 6.92625,7.68866 9.07961,13.2994 -2.99627,-0.5486 -5.99254,-1.0972 -9.07961,-1.66243 1.19852,-0.5486 2.39702,-1.0972 3.63185,-1.66242 -1.19851,-3.29161 -2.39702,-6.5832 -3.63185,-9.97455 z"
     fill="#0c2342"
     id="path86"
     style="stroke-width:1.73748" />
</svg>
